<mxfile modified="2022-05-20T02:02:43.746Z" host="app.diagrams.net" agent="5.0 (Windows NT 10.0; Win64; x64) AppleWebKit/537.36 (KHTML, like Gecko) Chrome/101.0.4951.54 Safari/537.36" etag="TxfkyBAonvY0zulfLnEc" compressed="false" version="18.0.8" type="google">
  <diagram name="Integration/System Logical Module/API/Resource URLs/Diagnostics" id="eh07jD_2CQalCJZzbypz">
    <mxGraphModel grid="1" page="1" gridSize="10" guides="1" tooltips="1" connect="1" arrows="1" fold="1" pageScale="1" pageWidth="850" pageHeight="1100" math="0" shadow="0">
      <root>
        <mxCell id="BTxX02UqWFgOPbwKcYyu-0" />
        <mxCell id="BTxX02UqWFgOPbwKcYyu-1" value="Diagram" parent="BTxX02UqWFgOPbwKcYyu-0" />
        <mxCell id="BTxX02UqWFgOPbwKcYyu-2" value="List DiagnosticLogs" style="text;html=1;strokeColor=none;fillColor=none;align=left;verticalAlign=middle;whiteSpace=wrap;rounded=0;dashed=1;fontFamily=Helvetica;fontSize=12;" vertex="1" parent="BTxX02UqWFgOPbwKcYyu-1">
          <mxGeometry x="400" y="300" width="320" height="20" as="geometry" />
        </mxCell>
        <mxCell id="BTxX02UqWFgOPbwKcYyu-3" value="DiagnosticLogs" style="text;html=1;strokeColor=none;fillColor=none;align=left;verticalAlign=middle;whiteSpace=wrap;rounded=0;dashed=1;fontSize=12;fontFamily=Courier New;" vertex="1" parent="BTxX02UqWFgOPbwKcYyu-1">
          <mxGeometry x="160" y="300" width="200" height="20" as="geometry" />
        </mxCell>
        <mxCell id="BTxX02UqWFgOPbwKcYyu-4" value="DiagnosticLogs(&#39;{uuid}&#39;)" style="text;html=1;strokeColor=none;fillColor=none;align=left;verticalAlign=middle;whiteSpace=wrap;rounded=0;dashed=1;fontSize=12;fontFamily=Courier New;" vertex="1" parent="BTxX02UqWFgOPbwKcYyu-1">
          <mxGeometry x="160" y="400" width="200" height="20" as="geometry" />
        </mxCell>
        <mxCell id="BTxX02UqWFgOPbwKcYyu-5" value="View DiagnosticLogs{uuid}" style="text;html=1;strokeColor=none;fillColor=none;align=left;verticalAlign=middle;whiteSpace=wrap;rounded=0;dashed=1;fontFamily=Helvetica;fontSize=12;" vertex="1" parent="BTxX02UqWFgOPbwKcYyu-1">
          <mxGeometry x="400" y="400" width="320" height="20" as="geometry" />
        </mxCell>
        <mxCell id="BTxX02UqWFgOPbwKcYyu-6" value="GET" style="text;html=1;strokeColor=none;fillColor=none;align=left;verticalAlign=middle;whiteSpace=wrap;rounded=0;dashed=1;fontSize=12;fontFamily=Courier New;" vertex="1" parent="BTxX02UqWFgOPbwKcYyu-1">
          <mxGeometry x="120" y="300" width="40" height="20" as="geometry" />
        </mxCell>
        <mxCell id="BTxX02UqWFgOPbwKcYyu-7" value="GET" style="text;html=1;strokeColor=none;fillColor=none;align=left;verticalAlign=middle;whiteSpace=wrap;rounded=0;dashed=1;fontSize=12;fontFamily=Courier New;" vertex="1" parent="BTxX02UqWFgOPbwKcYyu-1">
          <mxGeometry x="120" y="400" width="40" height="20" as="geometry" />
        </mxCell>
        <mxCell id="BTxX02UqWFgOPbwKcYyu-8" value="POST" style="text;html=1;strokeColor=none;fillColor=none;align=left;verticalAlign=middle;whiteSpace=wrap;rounded=0;dashed=1;fontSize=12;fontFamily=Courier New;" vertex="1" parent="BTxX02UqWFgOPbwKcYyu-1">
          <mxGeometry x="120" y="440" width="40" height="20" as="geometry" />
        </mxCell>
        <mxCell id="BTxX02UqWFgOPbwKcYyu-9" value="DiagnosticLogs" style="text;html=1;strokeColor=none;fillColor=none;align=left;verticalAlign=middle;whiteSpace=wrap;rounded=0;dashed=1;fontSize=12;fontFamily=Courier New;" vertex="1" parent="BTxX02UqWFgOPbwKcYyu-1">
          <mxGeometry x="160" y="440" width="200" height="20" as="geometry" />
        </mxCell>
        <mxCell id="BTxX02UqWFgOPbwKcYyu-10" value="POST" style="text;html=1;strokeColor=none;fillColor=none;align=left;verticalAlign=middle;whiteSpace=wrap;rounded=0;dashed=1;fontSize=12;fontFamily=Courier New;" vertex="1" parent="BTxX02UqWFgOPbwKcYyu-1">
          <mxGeometry x="120" y="460" width="40" height="20" as="geometry" />
        </mxCell>
        <mxCell id="BTxX02UqWFgOPbwKcYyu-11" value="DiagnosticLogs(&#39;{uuid}&#39;)" style="text;html=1;strokeColor=none;fillColor=none;align=left;verticalAlign=middle;whiteSpace=wrap;rounded=0;dashed=1;fontSize=12;fontFamily=Courier New;" vertex="1" parent="BTxX02UqWFgOPbwKcYyu-1">
          <mxGeometry x="160" y="460" width="200" height="20" as="geometry" />
        </mxCell>
        <mxCell id="BTxX02UqWFgOPbwKcYyu-12" value="&lt;font style=&quot;font-size: 10px&quot;&gt;Create&amp;nbsp;&lt;span&gt;DiagnosticLogs&lt;/span&gt;, server side generated Id. &lt;b&gt;&lt;font color=&quot;#cc0000&quot; style=&quot;font-size: 10px&quot;&gt;&lt;u&gt;NOT&lt;/u&gt;&lt;/font&gt; &lt;/b&gt;recommended.&lt;/font&gt;" style="text;html=1;strokeColor=none;fillColor=none;align=left;verticalAlign=middle;whiteSpace=wrap;rounded=0;dashed=1;fontFamily=Helvetica;fontSize=12;" vertex="1" parent="BTxX02UqWFgOPbwKcYyu-1">
          <mxGeometry x="400" y="440" width="320" height="20" as="geometry" />
        </mxCell>
        <mxCell id="BTxX02UqWFgOPbwKcYyu-13" value="&lt;font style=&quot;font-size: 10px;&quot;&gt;Create&amp;nbsp;&lt;span style=&quot;font-size: 10px;&quot;&gt;DiagnosticLogs&lt;/span&gt;, client side generated UUID. &lt;b style=&quot;font-size: 10px;&quot;&gt;&lt;font color=&quot;#009900&quot; style=&quot;font-size: 10px;&quot;&gt;RECOMMNEDED&lt;/font&gt;&lt;/b&gt;.&lt;/font&gt;" style="text;html=1;strokeColor=none;fillColor=none;align=left;verticalAlign=middle;whiteSpace=wrap;rounded=0;dashed=1;fontFamily=Helvetica;fontSize=10;" vertex="1" parent="BTxX02UqWFgOPbwKcYyu-1">
          <mxGeometry x="400" y="460" width="320" height="20" as="geometry" />
        </mxCell>
        <mxCell id="BTxX02UqWFgOPbwKcYyu-14" value="PUT" style="text;html=1;strokeColor=none;fillColor=none;align=left;verticalAlign=middle;whiteSpace=wrap;rounded=0;dashed=1;fontSize=12;fontFamily=Courier New;" vertex="1" parent="BTxX02UqWFgOPbwKcYyu-1">
          <mxGeometry x="120" y="420" width="40" height="20" as="geometry" />
        </mxCell>
        <mxCell id="BTxX02UqWFgOPbwKcYyu-15" value="DiagnosticLogs(&#39;{uuid}&#39;)" style="text;html=1;strokeColor=none;fillColor=none;align=left;verticalAlign=middle;whiteSpace=wrap;rounded=0;dashed=1;fontSize=12;fontFamily=Courier New;" vertex="1" parent="BTxX02UqWFgOPbwKcYyu-1">
          <mxGeometry x="160" y="420" width="200" height="20" as="geometry" />
        </mxCell>
        <mxCell id="BTxX02UqWFgOPbwKcYyu-16" value="Create DiagnosticLogs, client side generated UUID." style="text;html=1;strokeColor=none;fillColor=none;align=left;verticalAlign=middle;whiteSpace=wrap;rounded=0;dashed=1;fontFamily=Helvetica;fontSize=12;" vertex="1" parent="BTxX02UqWFgOPbwKcYyu-1">
          <mxGeometry x="400" y="420" width="320" height="20" as="geometry" />
        </mxCell>
        <mxCell id="BTxX02UqWFgOPbwKcYyu-17" value="DELETE" style="text;html=1;strokeColor=none;fillColor=none;align=left;verticalAlign=middle;whiteSpace=wrap;rounded=0;dashed=1;fontSize=10;fontFamily=Courier New;" vertex="1" parent="BTxX02UqWFgOPbwKcYyu-1">
          <mxGeometry x="120" y="480" width="40" height="20" as="geometry" />
        </mxCell>
        <mxCell id="BTxX02UqWFgOPbwKcYyu-18" value="DiagnosticLogs(&#39;{uuid}&#39;)" style="text;html=1;strokeColor=none;fillColor=none;align=left;verticalAlign=middle;whiteSpace=wrap;rounded=0;dashed=1;fontSize=12;fontFamily=Courier New;" vertex="1" parent="BTxX02UqWFgOPbwKcYyu-1">
          <mxGeometry x="160" y="480" width="200" height="20" as="geometry" />
        </mxCell>
        <mxCell id="BTxX02UqWFgOPbwKcYyu-19" value="Delete DiagnosticLogs&amp;nbsp;{uuid}" style="text;html=1;strokeColor=none;fillColor=none;align=left;verticalAlign=middle;whiteSpace=wrap;rounded=0;dashed=1;fontFamily=Helvetica;fontSize=12;" vertex="1" parent="BTxX02UqWFgOPbwKcYyu-1">
          <mxGeometry x="400" y="480" width="320" height="20" as="geometry" />
        </mxCell>
        <mxCell id="BTxX02UqWFgOPbwKcYyu-20" value="&lt;font style=&quot;font-size: 10px;&quot;&gt;List&amp;nbsp;&lt;span style=&quot;font-size: 10px;&quot;&gt;DiagnosticLogs&lt;/span&gt;, page 3, using ODATA standard filter arguments.&lt;/font&gt;" style="text;html=1;strokeColor=none;fillColor=none;align=left;verticalAlign=middle;whiteSpace=wrap;rounded=0;dashed=1;fontFamily=Helvetica;fontSize=10;" vertex="1" parent="BTxX02UqWFgOPbwKcYyu-1">
          <mxGeometry x="400" y="340" width="320" height="20" as="geometry" />
        </mxCell>
        <mxCell id="BTxX02UqWFgOPbwKcYyu-21" value="&lt;font style=&quot;font-size: 11px&quot;&gt;&lt;span&gt;DiagnosticLogs&lt;/span&gt;?$top=80&amp;amp;$skip=60&lt;/font&gt;" style="text;html=1;strokeColor=none;fillColor=none;align=left;verticalAlign=middle;whiteSpace=wrap;rounded=0;dashed=1;fontSize=12;fontFamily=Courier New;" vertex="1" parent="BTxX02UqWFgOPbwKcYyu-1">
          <mxGeometry x="160" y="340" width="200" height="20" as="geometry" />
        </mxCell>
        <mxCell id="BTxX02UqWFgOPbwKcYyu-22" value="GET" style="text;html=1;strokeColor=none;fillColor=none;align=left;verticalAlign=middle;whiteSpace=wrap;rounded=0;dashed=1;fontSize=12;fontFamily=Courier New;" vertex="1" parent="BTxX02UqWFgOPbwKcYyu-1">
          <mxGeometry x="120" y="340" width="40" height="20" as="geometry" />
        </mxCell>
        <mxCell id="BTxX02UqWFgOPbwKcYyu-23" value="Count DiagnosticLogs, using ODATA standard filter arguments." style="text;html=1;strokeColor=none;fillColor=none;align=left;verticalAlign=middle;whiteSpace=wrap;rounded=0;dashed=1;fontFamily=Helvetica;fontSize=11;" vertex="1" parent="BTxX02UqWFgOPbwKcYyu-1">
          <mxGeometry x="400" y="320" width="320" height="20" as="geometry" />
        </mxCell>
        <mxCell id="BTxX02UqWFgOPbwKcYyu-24" value="DiagnosticLogs?$count=true" style="text;html=1;strokeColor=none;fillColor=none;align=left;verticalAlign=middle;whiteSpace=wrap;rounded=0;dashed=1;fontSize=12;fontFamily=Courier New;" vertex="1" parent="BTxX02UqWFgOPbwKcYyu-1">
          <mxGeometry x="160" y="320" width="200" height="20" as="geometry" />
        </mxCell>
        <mxCell id="BTxX02UqWFgOPbwKcYyu-25" value="GET" style="text;html=1;strokeColor=none;fillColor=none;align=left;verticalAlign=middle;whiteSpace=wrap;rounded=0;dashed=1;fontSize=12;fontFamily=Courier New;" vertex="1" parent="BTxX02UqWFgOPbwKcYyu-1">
          <mxGeometry x="120" y="320" width="40" height="20" as="geometry" />
        </mxCell>
        <mxCell id="BTxX02UqWFgOPbwKcYyu-26" value="GET" style="text;html=1;strokeColor=none;fillColor=none;align=left;verticalAlign=middle;whiteSpace=wrap;rounded=0;dashed=1;fontSize=12;fontFamily=Courier New;" vertex="1" parent="BTxX02UqWFgOPbwKcYyu-1">
          <mxGeometry x="120" y="360" width="40" height="20" as="geometry" />
        </mxCell>
        <mxCell id="BTxX02UqWFgOPbwKcYyu-27" value="DiagnosticLogs?$search=xyz" style="text;html=1;strokeColor=none;fillColor=none;align=left;verticalAlign=middle;whiteSpace=wrap;rounded=0;dashed=1;fontSize=12;fontFamily=Courier New;" vertex="1" parent="BTxX02UqWFgOPbwKcYyu-1">
          <mxGeometry x="160" y="360" width="200" height="20" as="geometry" />
        </mxCell>
        <mxCell id="BTxX02UqWFgOPbwKcYyu-28" value="List DiagnosticLogs&amp;nbsp;that meet custom search criteria." style="text;html=1;strokeColor=none;fillColor=none;align=left;verticalAlign=middle;whiteSpace=wrap;rounded=0;dashed=1;fontFamily=Helvetica;fontSize=12;" vertex="1" parent="BTxX02UqWFgOPbwKcYyu-1">
          <mxGeometry x="400" y="360" width="320" height="20" as="geometry" />
        </mxCell>
        <mxCell id="BTxX02UqWFgOPbwKcYyu-29" value="Description" style="text;html=1;strokeColor=none;fillColor=#f5f5f5;align=left;verticalAlign=middle;whiteSpace=wrap;rounded=0;fontSize=12;fontFamily=Helvetica;fontColor=#333333;fontStyle=0" vertex="1" parent="BTxX02UqWFgOPbwKcYyu-1">
          <mxGeometry x="400" y="200" width="320" height="20" as="geometry" />
        </mxCell>
        <mxCell id="BTxX02UqWFgOPbwKcYyu-30" value="URL" style="text;html=1;strokeColor=none;fillColor=#f5f5f5;align=left;verticalAlign=middle;whiteSpace=wrap;rounded=0;fontSize=12;fontFamily=Helvetica;fontColor=#333333;fontStyle=0" vertex="1" parent="BTxX02UqWFgOPbwKcYyu-1">
          <mxGeometry x="160" y="200" width="230" height="20" as="geometry" />
        </mxCell>
        <mxCell id="BTxX02UqWFgOPbwKcYyu-31" value="&lt;font style=&quot;font-size: 10px;&quot;&gt;VERB&lt;/font&gt;" style="text;html=1;strokeColor=none;fillColor=#f5f5f5;align=left;verticalAlign=middle;whiteSpace=wrap;rounded=0;fontSize=10;fontFamily=Helvetica;fontColor=#333333;fontStyle=0" vertex="1" parent="BTxX02UqWFgOPbwKcYyu-1">
          <mxGeometry x="120" y="200" width="30" height="20" as="geometry" />
        </mxCell>
        <mxCell id="BTxX02UqWFgOPbwKcYyu-32" value="&lt;font style=&quot;font-size: 9px&quot;&gt;SummaryItem?$search=&lt;span style=&quot;font-size: 10px&quot;&gt;DiagnosticLog&lt;/span&gt;,abc:xyz&lt;/font&gt;" style="text;html=1;strokeColor=none;fillColor=none;align=left;verticalAlign=middle;whiteSpace=wrap;rounded=0;dashed=1;fontSize=9;fontFamily=Courier New;" vertex="1" parent="BTxX02UqWFgOPbwKcYyu-1">
          <mxGeometry x="160" y="260" width="250" height="20" as="geometry" />
        </mxCell>
        <mxCell id="BTxX02UqWFgOPbwKcYyu-33" value="GET" style="text;html=1;strokeColor=none;fillColor=none;align=left;verticalAlign=middle;whiteSpace=wrap;rounded=0;dashed=1;fontSize=12;fontFamily=Courier New;" vertex="1" parent="BTxX02UqWFgOPbwKcYyu-1">
          <mxGeometry x="120" y="260" width="40" height="20" as="geometry" />
        </mxCell>
        <mxCell id="BTxX02UqWFgOPbwKcYyu-34" value="&lt;font style=&quot;font-size: 10px&quot;&gt;SummaryItem?$search=DiagnosticLog:xyz&lt;/font&gt;" style="text;html=1;strokeColor=none;fillColor=none;align=left;verticalAlign=middle;whiteSpace=wrap;rounded=0;dashed=1;fontSize=10;fontFamily=Courier New;" vertex="1" parent="BTxX02UqWFgOPbwKcYyu-1">
          <mxGeometry x="160" y="240" width="240" height="20" as="geometry" />
        </mxCell>
        <mxCell id="BTxX02UqWFgOPbwKcYyu-35" value="GET" style="text;html=1;strokeColor=none;fillColor=none;align=left;verticalAlign=middle;whiteSpace=wrap;rounded=0;dashed=1;fontSize=12;fontFamily=Courier New;" vertex="1" parent="BTxX02UqWFgOPbwKcYyu-1">
          <mxGeometry x="120" y="240" width="40" height="20" as="geometry" />
        </mxCell>
        <mxCell id="BTxX02UqWFgOPbwKcYyu-36" value="&lt;font style=&quot;font-size: 11px&quot;&gt;List SummaryItems of type DiagnosticLog custom matching xyz&lt;/font&gt;" style="text;html=1;strokeColor=none;fillColor=none;align=left;verticalAlign=middle;whiteSpace=wrap;rounded=0;dashed=1;fontFamily=Helvetica;fontSize=12;" vertex="1" parent="BTxX02UqWFgOPbwKcYyu-1">
          <mxGeometry x="400" y="240" width="320" height="20" as="geometry" />
        </mxCell>
        <mxCell id="BTxX02UqWFgOPbwKcYyu-37" value="&lt;font style=&quot;font-size: 11px&quot;&gt;List SummaryItems&amp;nbsp;of type DiagnosticLog&amp;nbsp;&amp;amp; abc matching xyz&lt;/font&gt;" style="text;html=1;strokeColor=none;fillColor=none;align=left;verticalAlign=middle;whiteSpace=wrap;rounded=0;dashed=1;fontFamily=Helvetica;fontSize=12;" vertex="1" parent="BTxX02UqWFgOPbwKcYyu-1">
          <mxGeometry x="400" y="260" width="320" height="20" as="geometry" />
        </mxCell>
        <mxCell id="BTxX02UqWFgOPbwKcYyu-38" value="Context/Legend" parent="BTxX02UqWFgOPbwKcYyu-0" />
        <mxCell id="BTxX02UqWFgOPbwKcYyu-39" value="Title/Diagram" parent="BTxX02UqWFgOPbwKcYyu-0" />
        <mxCell id="BTxX02UqWFgOPbwKcYyu-40" value="&lt;font style=&quot;font-size: 12px ; font-weight: normal&quot;&gt;&lt;i&gt;Diagram: Base&amp;nbsp;&lt;/i&gt;&lt;i&gt;System&amp;nbsp;&lt;/i&gt;&lt;i&gt;Logical Module - Interoperability - APIs - DiagnosticLogs&lt;/i&gt;&lt;/font&gt;" style="text;strokeColor=none;fillColor=none;html=1;fontSize=12;fontStyle=1;verticalAlign=middle;align=left;shadow=0;glass=0;comic=0;opacity=30;fontColor=#808080;" vertex="1" parent="BTxX02UqWFgOPbwKcYyu-39">
          <mxGeometry x="120" y="520" width="520" height="20" as="geometry" />
        </mxCell>
        <mxCell id="BTxX02UqWFgOPbwKcYyu-41" value="Title/Page" visible="0" parent="BTxX02UqWFgOPbwKcYyu-0" />
        <mxCell id="BTxX02UqWFgOPbwKcYyu-42" value="" style="group;fontSize=12;" vertex="1" connectable="0" parent="BTxX02UqWFgOPbwKcYyu-41">
          <mxGeometry x="120" y="120" width="600" height="45" as="geometry" />
        </mxCell>
        <mxCell id="BTxX02UqWFgOPbwKcYyu-43" value="&lt;font style=&quot;font-size: 12px&quot;&gt;Base Logical Module - Interoperability - APIs - DiagnosticLogs&lt;/font&gt;" style="text;strokeColor=none;fillColor=none;html=1;fontSize=12;fontStyle=1;verticalAlign=middle;align=left;shadow=0;glass=0;comic=0;opacity=30;fontColor=#808080;" vertex="1" parent="BTxX02UqWFgOPbwKcYyu-42">
          <mxGeometry y="20" width="600" height="20" as="geometry" />
        </mxCell>
        <mxCell id="BTxX02UqWFgOPbwKcYyu-44" value="" style="line;strokeWidth=2;html=1;shadow=0;glass=0;comic=0;fillColor=none;fontSize=10;fontColor=#CCCCCC;labelBackgroundColor=none;strokeColor=#CCCCCC;" vertex="1" parent="BTxX02UqWFgOPbwKcYyu-42">
          <mxGeometry y="35" width="600" height="10" as="geometry" />
        </mxCell>
        <mxCell id="BTxX02UqWFgOPbwKcYyu-45" value="About" parent="BTxX02UqWFgOPbwKcYyu-0" />
      </root>
    </mxGraphModel>
  </diagram>
</mxfile>
